<?xml version="1.0" encoding="UTF-8"?>
<svg id="Layer_1" data-name="Layer 1" xmlns="http://www.w3.org/2000/svg" viewBox="0 0 1024 1024">
  <defs>
    <style>
      .cls-1 {
        fill: #fff;
      }

      .cls-3 {
        fill: #fff;
      }

      .cls-4 {
        fill: #fff;
      }
    </style>
  </defs>
  <g>
    <path class="cls-1" d="m395.69,760.16h0c-24.33,0-44.05-19.72-44.05-44.05v-249.24s18.29,18.48,44.05,18.48,44.05-18.48,44.05-18.48v249.24c0,24.33-19.72,44.05-44.05,44.05Z"/>
    <path class="cls-1" d="m512,816.57h0c-24.33,0-44.05-19.72-44.05-44.05v-249.24s18.29,18.48,44.05,18.48,44.05-18.48,44.05-18.48v249.24c0,24.33-19.72,44.05-44.05,44.05Z"/>
    <path class="cls-1" d="m628.96,709.79h0c-24.33,0-44.05-19.72-44.05-44.05v-249.24s18.29,18.48,44.05,18.48,44.05-18.48,44.05-18.48v249.24c0,24.33-19.72,44.05-44.05,44.05Z"/>
  </g>
</svg>