<?xml version="1.0" encoding="utf-8"?>
<!-- Generator: Adobe Illustrator 27.6.1, SVG Export Plug-In . SVG Version: 6.00 Build 0)  -->
<svg version="1.1" id="Layer_1" xmlns="http://www.w3.org/2000/svg" xmlns:xlink="http://www.w3.org/1999/xlink" x="0px" y="0px"
	 viewBox="0 0 1348.7 1024" style="enable-background:new 0 0 1348.7 1024;" xml:space="preserve">
<style type="text/css">
	.st0{fill:#F05A3B;}
	.st1{fill:#FFC90E;}
	.st2{fill:#FFFFFF;}
</style>
<g>
	<g>
		<path class="st0" d="M554.9,603.9L554.9,603.9c-25,0-45.2-20.2-45.2-45.2v-256c0,0,18.8,19,45.2,19s45.2-19,45.2-19v256
			C600.1,583.6,579.9,603.9,554.9,603.9z"/>
		<path class="st0" d="M674.3,661.8L674.3,661.8c-25,0-45.2-20.2-45.2-45.2v-256c0,0,18.8,19,45.2,19s45.2-19,45.2-19v256
			C719.6,641.6,699.3,661.8,674.3,661.8z"/>
		<path class="st0" d="M794.5,552.2L794.5,552.2c-25,0-45.2-20.2-45.2-45.2V251c0,0,18.8,19,45.2,19s45.2-19,45.2-19v256
			C839.7,531.9,819.5,552.2,794.5,552.2z"/>
		<g>
			<path class="st1" d="M988.4,417.7c0,22.9-9.3,43.6-24.3,58.6c-15,15-35.7,24.3-58.6,24.3h-12.2c-9.5,0-17.3-7.7-17.3-17.3V352.1
				c0-9.5,7.7-17.3,17.3-17.3h12.2c3.7,0,7.4,0.2,11,0.7c12.5,1.6,24,6.1,34.1,12.6C973.4,362.9,988.4,388.5,988.4,417.7
				L988.4,417.7z"/>
			<path class="st1" d="M472.7,352.1v131.3c0,9.5-7.7,17.3-17.3,17.3h-12.2c-45.8,0-82.9-37.1-82.9-82.9c0-22.9,9.3-43.6,24.3-58.6
				c4.1-4.1,8.6-7.8,13.5-11c10.1-6.5,21.6-11,34.1-12.6c3.6-0.5,7.3-0.7,11-0.7h12.2C464.9,334.8,472.7,342.5,472.7,352.1
				L472.7,352.1z"/>
			<path class="st1" d="M916.5,190.3c-2,5.2-5.6,9.8-10.5,13.1c-4.7,3.1-10,4.6-15.2,4.6c-1.2,0-2.4-0.1-3.6-0.2
				c-7.7-1-14.9-5.2-19.5-12.2c-8.6-13-18.6-25.3-29.6-36.3c-43.7-43.7-101.9-67.8-163.7-67.8c-78,0-150.3,38.9-193.4,104.1
				c-4.6,7-11.8,11.2-19.5,12.2c-6.3,0.8-13-0.5-18.8-4.3c-5-3.3-8.6-7.9-10.5-13.1c0,0,0,0,0,0c-3.1-8-2.4-17.4,2.7-25.1
				C488.2,84.4,577.8,36.2,674.4,36.2c76.6,0,148.6,29.8,202.8,84c13.7,13.7,26,28.8,36.7,44.9C918.9,172.9,919.7,182.2,916.5,190.3
				L916.5,190.3z"/>
			<path class="st2" d="M461.5,207.8c-18.6,34.3-29.2,73.6-29.2,115.3v12.5c-12.5,1.6-24,6.1-34.1,12.6V323
				c0-48.1,12.4-93.3,34-132.7c2,5.2,5.6,9.8,10.5,13.1C448.4,207.2,455.1,208.6,461.5,207.8L461.5,207.8z"/>
			<path class="st2" d="M950.6,323v25.1c-10.1-6.5-21.7-11-34.1-12.6V323c0-41.7-10.6-81-29.2-115.3c1.2,0.1,2.4,0.2,3.6,0.2
				c5.2,0,10.5-1.5,15.2-4.6c5-3.3,8.6-7.9,10.5-13.1C938.2,229.7,950.6,275,950.6,323L950.6,323z"/>
		</g>
	</g>
	<g>
		<path class="st2" d="M177.4,880.4V917H45V695.6h40.8v184.7H177.4z"/>
		<path class="st2" d="M206.9,725.5c-5.1-4.9-7.6-11.1-7.6-18.4s2.5-13.5,7.6-18.4s11.5-7.2,19.4-7.2s14.2,2.4,19.1,7.2
			s7.3,11,7.3,18.4s-2.5,13.2-7.6,18.2c-5.1,5.1-11.4,7.6-18.9,7.6S211.9,730.4,206.9,725.5L206.9,725.5z M206.9,763.1h38.6V917
			h-38.6V763.1L206.9,763.1z"/>
		<path class="st2" d="M296.9,908c-12-9-18.4-21.1-19.3-36.2h37.9c0.5,6.6,3.2,11.7,8.3,15.3c5.1,3.6,11.5,5.4,19.4,5.4
			s14-1.5,18.3-4.5c4.3-3,6.5-7.4,6.5-13.2c0-5.3-1.7-9.1-5.1-11.5c-3.4-2.4-7.9-4.2-13.4-5.3l-26-6.2c-14.5-3.3-25.1-8.7-31.9-16.4
			c-6.8-7.7-10.2-16.9-10.2-27.7c0-14.9,5.7-26.9,17.1-35.9c11.4-9,26.2-13.5,44.4-13.5s32.9,4.5,44.2,13.5
			c11.2,9,17.1,20.8,17.5,35.6h-37.9c0-6.2-2.2-11.1-6.7-14.7c-4.5-3.6-10.4-5.4-17.7-5.4c-6.6,0-11.9,1.4-15.8,4.3
			c-3.9,2.9-5.9,6.9-5.9,12.2s1.5,9,4.6,11c3.1,2.1,7.6,3.8,13.6,5.3l29.7,6.7c13.4,3.3,23.3,8.8,29.8,16.6s9.7,17.2,9.7,28.1
			c0,15.2-5.8,27.3-17.5,36.4s-27.2,13.7-46.8,13.7S308.9,917,296.9,908L296.9,908z"/>
		<path class="st2" d="M523.6,794.8h-29.3V917h-38.6V794.8h-29.3v-31.7h29.3v-40.5h38.6v40.5h29.3V794.8z"/>
		<path class="st2" d="M669.4,907c-13.8,9.7-30.3,14.5-49.4,14.5c-15.8,0-29.8-3.5-41.9-10.4c-12.1-6.9-21.5-16.6-28.2-29
			c-6.7-12.4-10-26.7-10-42.9s3.4-30.5,10.2-42.7s16.2-21.6,28.2-28.3c12-6.7,25.5-10,40.7-10s28.2,3.2,39.7,9.5
			c11.5,6.3,20.4,15,26.7,26c6.3,11,9.4,23.7,9.4,37.9c0,7.6-0.6,14-1.7,19H577.8c0.5,11.7,4.5,21.1,12.2,28.2
			c7.7,7.1,17.7,10.7,29.9,10.7c9.2,0,17.2-1.8,23.8-5.5c6.7-3.7,11.3-8.7,13.7-15.3h37.6C691.8,884.6,683.2,897.3,669.4,907
			L669.4,907z M655.6,824.8c-0.2-10.8-3.8-19.3-10.7-25.5c-6.9-6.2-15.9-9.4-26.9-9.4s-20.5,3.2-27.8,9.5
			c-7.3,6.3-11.2,14.8-11.6,25.4L655.6,824.8L655.6,824.8z"/>
		<path class="st2" d="M853.5,775.1c10.4,11.3,15.6,26.8,15.6,46.6V917h-38.8v-86.3c0-25.1-10.2-37.6-30.7-37.6
			c-11,0-19.5,3.2-25.5,9.6c-6,6.4-9,15.1-9,26V917h-38.3V763.1h32l2.9,18.5c4.8-7.1,11.7-12.8,20.6-17c8.9-4.3,18.5-6.4,28.8-6.4
			C829,758.2,843.1,763.8,853.5,775.1L853.5,775.1z"/>
		<path class="st2" d="M911.4,695.6h40.5v139.9c0,17.1,4.8,29.5,14.5,37.2c9.7,7.8,22,11.6,36.9,11.6c15.8,0,28.4-4.1,37.8-12.4
			s14-20.4,14-36.5V695.6h40.4v141.6c0,18.2-4,33.6-12,46.3s-18.9,22.1-32.8,28.5s-29.7,9.5-47.5,9.5s-33.9-3.2-47.7-9.7
			s-24.6-16-32.5-28.7c-7.8-12.6-11.7-28-11.7-45.9L911.4,695.6L911.4,695.6z"/>
		<path class="st2" d="M1267.3,768.4c11.3,6.8,20.2,16.3,26.7,28.7c6.5,12.3,9.7,26.5,9.7,42.6s-3.2,30.3-9.7,42.8
			s-15.4,22.1-26.7,28.9s-24.4,10.2-39.3,10.2c-11,0-21-1.8-30-5.6s-16.1-9-21.4-15.8v87.7h-38.3V763.1h31.7l2.9,22.1
			c5.5-8.3,13.2-14.9,22.9-19.7c9.8-4.8,20.7-7.2,32.7-7.2C1243,758.2,1255.9,761.6,1267.3,768.4L1267.3,768.4z M1252.3,873.6
			c7.9-8.7,11.9-19.9,11.9-33.7s-4-25.4-11.9-34c-7.9-8.6-18.3-12.9-31.3-12.9s-23.4,4.3-31.4,12.9c-8,8.6-12.1,20-12.1,34.3
			s4,25.3,12,33.7s18.4,12.6,31.2,12.6S1244.4,882.3,1252.3,873.6L1252.3,873.6z"/>
	</g>
</g>
</svg>
